<?xml version="1.0" encoding="UTF-8"?>
<!DOCTYPE svg PUBLIC "-//W3C//DTD SVG 1.1//EN" "http://www.w3.org/Graphics/SVG/1.1/DTD/svg11.dtd">
<svg xmlns="http://www.w3.org/2000/svg" version="1.1" width="1800px" height="1800px" style="shape-rendering:geometricPrecision; text-rendering:geometricPrecision; image-rendering:optimizeQuality; fill-rule:evenodd; clip-rule:evenodd" xmlns:xlink="http://www.w3.org/1999/xlink">
<g><path style="opacity:1" fill="#0d1215" d="M -0.5,-0.5 C 0.166667,-0.5 0.833333,-0.5 1.5,-0.5C 1.5,599.5 1.5,1199.5 1.5,1799.5C 0.833333,1799.5 0.166667,1799.5 -0.5,1799.5C -0.5,1199.5 -0.5,599.5 -0.5,-0.5 Z"/></g>
<g><path style="opacity:1" fill="#000000" d="M 1.5,-0.5 C 600.833,-0.5 1200.17,-0.5 1799.5,-0.5C 1799.5,599.5 1799.5,1199.5 1799.5,1799.5C 1200.17,1799.5 600.833,1799.5 1.5,1799.5C 1.5,1199.5 1.5,599.5 1.5,-0.5 Z"/></g>
<g><path style="opacity:1" fill="#fefefe" d="M 1341.5,595.5 C 1485.5,595.5 1629.5,595.5 1773.5,595.5C 1773.5,741.167 1773.5,886.833 1773.5,1032.5C 1756.5,1032.5 1739.5,1032.5 1722.5,1032.5C 1722.5,903.833 1722.5,775.167 1722.5,646.5C 1595.5,646.5 1468.5,646.5 1341.5,646.5C 1341.5,629.5 1341.5,612.5 1341.5,595.5 Z"/></g>
<g><path style="opacity:1" fill="#fdfdfd" d="M 485.5,843.5 C 504.863,842.846 523.863,843.513 542.5,845.5C 512.179,925.635 481.179,1005.47 449.5,1085C 445.937,1085.12 443.77,1083.29 443,1079.5C 415.981,1007.6 388.481,935.937 360.5,864.5C 331.852,937.27 303.686,1010.27 276,1083.5C 274,1086.17 272,1086.17 270,1083.5C 239.003,1004.01 208.503,924.338 178.5,844.5C 197.326,843.503 216.326,843.17 235.5,843.5C 247.725,876.947 260.225,910.281 273,943.5C 292.863,892.245 312.53,840.912 332,789.5C 350.76,788.341 369.593,788.175 388.5,789C 408.74,840.653 428.574,892.486 448,944.5C 460.607,910.843 473.107,877.177 485.5,843.5 Z"/></g>
<g><path style="opacity:1" fill="#c4b43a" d="M 743.5,788.5 C 743.5,806.167 743.5,823.833 743.5,841.5C 715.328,841.169 687.328,841.502 659.5,842.5C 659.5,864.833 659.5,887.167 659.5,909.5C 698.833,909.5 738.167,909.5 777.5,909.5C 778.496,909.414 779.329,909.748 780,910.5C 780.667,927.5 780.667,944.5 780,961.5C 779.329,962.252 778.496,962.586 777.5,962.5C 738.167,962.5 698.833,962.5 659.5,962.5C 659.5,984.833 659.5,1007.17 659.5,1029.5C 687.328,1030.5 715.328,1030.83 743.5,1030.5C 743.5,1048.5 743.5,1066.5 743.5,1084.5C 697.5,1084.5 651.5,1084.5 605.5,1084.5C 604.542,1084.05 603.708,1083.38 603,1082.5C 602.333,985.167 602.333,887.833 603,790.5C 603.5,790 604,789.5 604.5,789C 650.832,788.5 697.165,788.333 743.5,788.5 Z"/></g>
<g><path style="opacity:1" fill="#fefefe" d="M 887.5,842.5 C 886.503,863.994 886.169,885.66 886.5,907.5C 867.833,907.5 849.167,907.5 830.5,907.5C 830.5,868.5 830.5,829.5 830.5,790.5C 830.611,789.883 830.944,789.383 831.5,789C 861.518,788.123 891.518,788.456 921.5,790C 948.377,792.626 973.71,800.293 997.5,813C 1029.23,833.577 1048.06,862.744 1054,900.5C 1068.29,1018.22 1016.12,1079.72 897.5,1085C 875.833,1085.67 854.167,1085.67 832.5,1085C 832,1084.5 831.5,1084 831,1083.5C 830.5,1044.17 830.333,1004.83 830.5,965.5C 849.167,965.5 867.833,965.5 886.5,965.5C 886.5,987.167 886.5,1008.83 886.5,1030.5C 970.838,1034 1007.67,994.002 997,910.5C 989.998,878.497 970.831,857.664 939.5,848C 922.495,843.129 905.162,841.296 887.5,842.5 Z"/></g>
<g><path style="opacity:1" fill="#fdfdfd" d="M 1222.5,788.5 C 1224.53,788.338 1226.53,788.505 1228.5,789C 1266.46,885.763 1304.3,982.596 1342,1079.5C 1342.82,1081.7 1342.32,1083.53 1340.5,1085C 1322.12,1085.82 1303.79,1085.65 1285.5,1084.5C 1265.5,1029.17 1245.5,973.833 1225.5,918.5C 1205.83,973.833 1186.17,1029.17 1166.5,1084.5C 1147.83,1085.83 1129.17,1085.83 1110.5,1084.5C 1109.36,1082.58 1109.19,1080.58 1110,1078.5C 1147.61,981.844 1185.11,885.177 1222.5,788.5 Z"/></g>
<g><path style="opacity:1" fill="#fdfdfd" d="M 1508.5,788.5 C 1510.79,788.244 1512.96,788.577 1515,789.5C 1552.83,887 1590.67,984.5 1628.5,1082C 1628.24,1083.26 1627.57,1084.26 1626.5,1085C 1607.93,1085.83 1589.43,1085.66 1571,1084.5C 1551.26,1029.12 1531.43,973.786 1511.5,918.5C 1491.9,973.453 1472.4,1028.45 1453,1083.5C 1452.5,1084 1452,1084.5 1451.5,1085C 1432.93,1085.83 1414.43,1085.66 1396,1084.5C 1395.35,1081.41 1395.68,1078.41 1397,1075.5C 1434.18,979.808 1471.35,884.141 1508.5,788.5 Z"/></g>
<g><path style="opacity:1" fill="#5a531b" d="M 743.5,788.5 C 744.497,806.326 744.83,824.326 744.5,842.5C 716.5,842.5 688.5,842.5 660.5,842.5C 660.167,842.5 659.833,842.5 659.5,842.5C 687.328,841.502 715.328,841.169 743.5,841.5C 743.5,823.833 743.5,806.167 743.5,788.5 Z"/></g>
<g><path style="opacity:1" fill="#cccccc" d="M 235.5,843.5 C 216.326,843.17 197.326,843.503 178.5,844.5C 177.957,844.44 177.624,844.107 177.5,843.5C 196.996,842.172 216.329,842.172 235.5,843.5 Z"/></g>
<g><path style="opacity:1" fill="#cbcbcb" d="M 485.5,843.5 C 504.659,842.503 523.993,842.17 543.5,842.5C 543.737,843.791 543.404,844.791 542.5,845.5C 523.863,843.513 504.863,842.846 485.5,843.5 Z"/></g>
<g><path style="opacity:1" fill="#6f6f6f" d="M 830.5,790.5 C 830.5,829.5 830.5,868.5 830.5,907.5C 849.167,907.5 867.833,907.5 886.5,907.5C 886.169,885.66 886.503,863.994 887.5,842.5C 887.5,864.5 887.5,886.5 887.5,908.5C 868.167,908.5 848.833,908.5 829.5,908.5C 829.168,868.996 829.501,829.663 830.5,790.5 Z"/></g>
<g><path style="opacity:1" fill="#fdfdfd" d="M 80.5,902.5 C 80.5,1032.17 80.5,1161.83 80.5,1291.5C 208.167,1291.5 335.833,1291.5 463.5,1291.5C 463.5,1308.5 463.5,1325.5 463.5,1342.5C 318.833,1342.5 174.167,1342.5 29.5,1342.5C 29.5,1195.83 29.5,1049.17 29.5,902.5C 46.5,902.5 63.5,902.5 80.5,902.5 Z"/></g>
<g><path style="opacity:1" fill="#3c3712" d="M 659.5,842.5 C 659.833,842.5 660.167,842.5 660.5,842.5C 660.5,864.5 660.5,886.5 660.5,908.5C 699.67,908.168 738.67,908.501 777.5,909.5C 738.167,909.5 698.833,909.5 659.5,909.5C 659.5,887.167 659.5,864.833 659.5,842.5 Z"/></g>
<g><path style="opacity:1" fill="#3d3813" d="M 777.5,962.5 C 738.67,963.499 699.67,963.832 660.5,963.5C 660.5,985.5 660.5,1007.5 660.5,1029.5C 660.167,1029.5 659.833,1029.5 659.5,1029.5C 659.5,1007.17 659.5,984.833 659.5,962.5C 698.833,962.5 738.167,962.5 777.5,962.5 Z"/></g>
<g><path style="opacity:1" fill="#7b7125" d="M 659.5,1029.5 C 659.833,1029.5 660.167,1029.5 660.5,1029.5C 688.5,1029.5 716.5,1029.5 744.5,1029.5C 744.5,1048.17 744.5,1066.83 744.5,1085.5C 697.997,1085.83 651.664,1085.5 605.5,1084.5C 651.5,1084.5 697.5,1084.5 743.5,1084.5C 743.5,1066.5 743.5,1048.5 743.5,1030.5C 715.328,1030.83 687.328,1030.5 659.5,1029.5 Z"/></g>
<g><path style="opacity:1" fill="#bbbbbb" d="M 80.5,902.5 C 63.5,902.5 46.5,902.5 29.5,902.5C 29.5,1049.17 29.5,1195.83 29.5,1342.5C 174.167,1342.5 318.833,1342.5 463.5,1342.5C 463.5,1325.5 463.5,1308.5 463.5,1291.5C 335.833,1291.5 208.167,1291.5 80.5,1291.5C 80.5,1161.83 80.5,1032.17 80.5,902.5 Z"/></g>
</svg>
